<svg xmlns="http://www.w3.org/2000/svg" viewBox="0 0 113.38 103.42"><defs><style>.cls-1{fill:#fff;}</style></defs><g id="Capa_2" data-name="Capa 2"><g id="Capa_1-2" data-name="Capa 1"><path class="cls-1" d="M55.42,96.19a4.11,4.11,0,0,1-1.83.45c-1.46,0-2.14-1-2.14-2.58s.73-2.48,2.26-2.48a2.73,2.73,0,0,1,1.6.43l-.4.72a2.13,2.13,0,0,0-1.19-.32c-.88,0-1.28.67-1.28,1.64,0,1.15.42,1.78,1.25,1.78a2.22,2.22,0,0,0,.85-.17v-.9h-.67l0-.7h1.6Z"/><path class="cls-1" d="M59.37,94.79c0,1.21-.61,1.85-1.66,1.85S56,96,56,94.79a1.67,1.67,0,1,1,3.33,0m-1,0c0-.85-.26-1.15-.69-1.15s-.69.3-.69,1.15.22,1.15.69,1.15.69-.31.69-1.15"/><path class="cls-1" d="M61,93.38a1.25,1.25,0,0,1,.93-.43c.84,0,1.44.59,1.44,1.84s-.73,1.85-1.55,1.85a1.18,1.18,0,0,1-1-.5l-.17.43h-.51v-5h1v1.23Zm.06,2.2a.84.84,0,0,0,.64.37c.41,0,.72-.31.72-1.16s-.27-1.15-.7-1.15a1,1,0,0,0-.66.29Z"/><path class="cls-1" d="M64.33,96.57V93.72l-.4-.09V93h1.34v3.55Zm0-5h1v.86h-1Z"/><path class="cls-1" d="M67,95.05a.8.8,0,0,0,.91.87,2.46,2.46,0,0,0,1-.3l.18.67a3,3,0,0,1-1.33.35A1.64,1.64,0,0,1,66,94.79c0-1.09.52-1.84,1.66-1.84s1.49.8,1.49,1.69v.41Zm.65-1.41c-.47,0-.65.43-.65.85h1.29c0-.45-.14-.85-.64-.85"/><path class="cls-1" d="M71.87,93.81a1.73,1.73,0,0,0-.44-.06,1.07,1.07,0,0,0-.64.24v2.58h-.93V93h.65c0,.17.08.32.11.48h0a1,1,0,0,1,.85-.54,1.56,1.56,0,0,1,.4.05c0,.27,0,.53,0,.8"/><path class="cls-1" d="M74.64,96.57V94.46c0-.53-.2-.79-.63-.79a1.1,1.1,0,0,0-.62.22v2.68h-1V93h.65l.14.41A1.5,1.5,0,0,1,74.36,93c.89,0,1.25.53,1.25,1.43v2.19Z"/><path class="cls-1" d="M79.57,94.79c0,1.21-.61,1.85-1.67,1.85s-1.66-.64-1.66-1.85a1.67,1.67,0,1,1,3.33,0m-1,0c0-.85-.26-1.15-.7-1.15s-.68.3-.68,1.15.22,1.15.68,1.15.7-.31.7-1.15"/><path class="cls-1" d="M84.16,93.3a2.17,2.17,0,0,1-.09-.65V91.58h1v5h-.77l-.11-.39a1.17,1.17,0,0,1-.94.46c-.8,0-1.45-.58-1.45-1.85S82.42,93,83.28,93a1.13,1.13,0,0,1,.88.35m-.09.53a1.29,1.29,0,0,0-.64-.17c-.45,0-.73.3-.73,1.13S83,96,83.42,96a.92.92,0,0,0,.65-.3Z"/><path class="cls-1" d="M86.69,95.05a.8.8,0,0,0,.91.87,2.42,2.42,0,0,0,1-.3l.18.67a2.91,2.91,0,0,1-1.33.35,1.65,1.65,0,0,1-1.75-1.85c0-1.09.52-1.84,1.66-1.84s1.5.8,1.5,1.69v.41Zm.66-1.41c-.47,0-.66.43-.66.85H88c0-.45-.14-.85-.63-.85"/><path class="cls-1" d="M93.19,96.64c-1.37,0-2.1-.93-2.1-2.55s.72-2.51,2.1-2.51a3.06,3.06,0,0,1,1.67.41l-.37.75a2.07,2.07,0,0,0-1.2-.33c-.81,0-1.21.6-1.21,1.67s.4,1.73,1.2,1.73a2.26,2.26,0,0,0,1.29-.45l.3.76a2.89,2.89,0,0,1-1.68.52"/><path class="cls-1" d="M95.52,96.57v-5h1v1.31a2.28,2.28,0,0,1-.09.54,1.24,1.24,0,0,1,1-.48c1,0,1.31.53,1.31,1.43v2.19h-1V94.46a.38.38,0,0,0,0-.21c0-.4-.23-.58-.59-.58a1.16,1.16,0,0,0-.62.22v2.68Z"/><path class="cls-1" d="M99.75,96.57V93.72l-.41-.09V93h1.35v3.55Zm0-5h1v.86h-1Z"/><path class="cls-1" d="M101.55,95.63v-4h.93v4c0,.29.18.34.57.34v.66a2.76,2.76,0,0,1-.51.06c-.73,0-1-.38-1-1"/><path class="cls-1" d="M104.49,95.05a.8.8,0,0,0,.91.87,2.5,2.5,0,0,0,1-.3l.18.67a3,3,0,0,1-1.33.35,1.64,1.64,0,0,1-1.75-1.85c0-1.09.51-1.84,1.65-1.84s1.5.8,1.5,1.69v.41Zm.66-1.41c-.47,0-.66.43-.66.85h1.3c0-.45-.15-.85-.64-.85"/><path class="cls-1" d="M111.62,0H0V103.42H113.38V0ZM1.76,1.76H45.89v99.9H1.76Zm109.86,99.9h-64V1.76h64Z"/><path class="cls-1" d="M25.21,15.46a.44.44,0,0,0,.14-.6c-.08-.16-.3-.17-.2-.19,1.13-.27,1.73-1.92,1.69-2.55A2.25,2.25,0,0,0,29.67,12a2,2,0,0,0-.14-2.91,1.86,1.86,0,0,0-2.07,0,1.05,1.05,0,0,0-.86-.54,2.12,2.12,0,0,0-.43-1.33,2.15,2.15,0,0,0-2.72,0,1.92,1.92,0,0,0-2.54,2A3.35,3.35,0,0,0,19.23,9a2,2,0,0,0-1.12.64,3.68,3.68,0,0,0-.24.39,1.84,1.84,0,0,0,.64,2.39,3,3,0,0,0,1.72.26,1.27,1.27,0,0,0,.71-.39c.08-.08.13-.2.24-.2a1.4,1.4,0,0,0,.89,1.42s0,.08,0,.14a1.29,1.29,0,0,0,1.11,1.12.45.45,0,0,0-.12.68,3.67,3.67,0,0,1,1.06-.19,3.77,3.77,0,0,1,1.06.19"/><path class="cls-1" d="M27.88,19a3.51,3.51,0,0,1,.81-2.1.3.3,0,0,0,.09-.25.25.25,0,0,0-.12-.19L27.92,16l0,0h0a.29.29,0,0,0-.17.08,1.29,1.29,0,0,1-.86.32l-.26,0a3.11,3.11,0,0,1-.64-.24l-.36-.17h0a3.3,3.3,0,0,0-2.75,0h0l-.16.07-.4.19a2.08,2.08,0,0,1-.44.15l-.26,0a1.32,1.32,0,0,1-.86-.32c-.07-.05-.11-.08-.16-.08h-.05l0,0s-.52.32-.74.47a.25.25,0,0,0-.13.2.3.3,0,0,0,.09.25,3.56,3.56,0,0,1,.8,2.12,3.08,3.08,0,0,1-.53,1.89,2.37,2.37,0,0,0,0,2.34,2.35,2.35,0,0,0,2.14,1c.13,0,1.31,0,1.71.77,0,0,.21.34.28.48l.1.18.09-.18c.07-.14.26-.44.29-.48.4-.75,1.57-.77,1.7-.77a2.22,2.22,0,0,0,2.18-3.35A3.19,3.19,0,0,1,27.88,19m-.61,0-2.06,1.47L26,22.8l-2-1.5-2,1.5.78-2.33-2-1.47h2.53L24,16.64,24.73,19Z"/><path class="cls-1" d="M41.65,28.79c-.26-.31-.94-.16-.94-.16a1,1,0,0,0-.65-1.38.88.88,0,0,0-.75.07h0l-.07.06a.51.51,0,0,0-.15.36.53.53,0,0,0,.53.53.54.54,0,0,0,.3-.1.53.53,0,0,0,.21-.31.51.51,0,0,1,.19.25c.3.93-.75,1.26-.75,1.26a4.07,4.07,0,0,1-3.73-.5l.4-.21a1,1,0,0,1,.37-.08.13.13,0,0,0,0,.06.46.46,0,1,0,.92,0,.41.41,0,0,0-.1-.28c-.27-.4-1.2-.13-1.2-.13a1.68,1.68,0,0,0,0-1.32,1.26,1.26,0,0,0-1.45-.61.65.65,0,0,0-.43.42c-.14.7.44.76.44.76.42,0,.43-.31.43-.31.05-.33-.41-.35-.41-.35.39-.69,1.62.44.82,1.43-.09.1-.17,0-.17,0A16.08,16.08,0,0,1,33,26.86c0-.39-.38-.59-.32-.69s.26.08.38-.1.13-.68.21-1.12a4.13,4.13,0,0,0,2.59.34A.3.3,0,0,0,36,25c0-.48-1.24-3.34-1.27-4.35.59.29,1-.62,1.07-.9.8.36,1.07,7.78,1.69,8,.3.12.42-.38.45-.48a24.13,24.13,0,0,0,1-7.6,20.75,20.75,0,0,0-.64-4.6c-.25-.85-.74-2.6-1.87-2.84a.8.8,0,0,0-.92.82c0,.39.27.57.15.95a3.46,3.46,0,0,0-.35.79c-.07.28.18.39.1.68-.36-.05-.54.26-1.1.12.37-.17.37-1.22-.08-1.4-.06,0-.14,0-.15-.09a2,2,0,0,0,.22-.31,1.44,1.44,0,0,0,0-1.35c.18,0,.38-.32.4-.59h0v0h0a1.16,1.16,0,0,1,.1-.53.15.15,0,0,0-.07-.19.14.14,0,0,0-.18.07c-.11.24-.38.11-.26-.13a.15.15,0,0,0-.07-.19.14.14,0,0,0-.18.07c-.11.23-.37.1-.26-.12a.15.15,0,0,0-.06-.19.13.13,0,0,0-.18.07c-.12.23-.38.1-.27-.13a.14.14,0,1,0-.25-.12,1.06,1.06,0,0,1-.32.45c-.25,0-.18.33-.15.52a.69.69,0,0,0-.84.58H31.7c-.39,0-.76.21-.73.56a.6.6,0,0,0,.34.46s0-.21.18-.23a.52.52,0,0,1,.49.33c0,.19-.12.67.51.74,0,0,0,.1,0,.2a1.74,1.74,0,0,0-.51,0c-.4.06-.95.29-1.08.68a.73.73,0,0,0,0,.3,2.29,2.29,0,0,1,.08.28.59.59,0,0,1-.13.18,1.24,1.24,0,0,1-.75.36.93.93,0,0,1-.71-.34c-.4-.54.12-1.48.11-1.83,0-.92-1.19-.37-1.66-.13a4.56,4.56,0,0,0-1.36,1.22,4.05,4.05,0,0,0-.54.83c0,.05-.07.06-.12.06a2.94,2.94,0,0,0,1,.27,1.62,1.62,0,0,0,1.11-.3.24.24,0,0,1,.16-.06.25.25,0,0,1,.17.08l.14.11.14.11.09.07.24.19.05,0,.26.2.24.18h0a.14.14,0,0,1,0,.07.14.14,0,0,1,0,.11l-.13.15A5.06,5.06,0,0,0,28.63,18a1.4,1.4,0,0,0,1.11.83.57.57,0,0,0,.65-.47l0,0A8.7,8.7,0,0,0,31,19.89c-.28.14-.72.59-.49,1.82a10.18,10.18,0,0,1-.87-.73,1.34,1.34,0,0,0-1.07-.92,5.72,5.72,0,0,0,.47,1.05,3,3,0,0,1,.3,1.69c.29-.3.25-1.13.25-1.13l.06,0c.06,0,.36.57.86.69a6.72,6.72,0,0,0,2.13,2.31c0,.27,0,.92-.16.92-.56.13-1.09-.25-1.58-.23l-.09,0c-2.14-1-5,1.19-5.44,1.62-.25.22-.54-.09-.54-.09a.67.67,0,0,0-.61-.28.65.65,0,0,0-.6.28s-.29.31-.54.09c-.45-.41-3-2.4-5.1-1.72,0-.11-.29-.17-.37-.2a2.5,2.5,0,0,1-.41-.23,2.71,2.71,0,0,0-.86-.08.82.82,0,0,1-.33-.12,3.21,3.21,0,0,1-.94-.76L15,23.62a1.26,1.26,0,0,1-.24-.45,3.26,3.26,0,0,1,.13-1.27c0-.31,0-.33.06-.66a4,4,0,0,0,2.18-2s.12-.21.12-.21l.18,0c.53,0,.89-.3,1.47-.23,0,0,.08.28.45.43a2.26,2.26,0,0,0,.19,1,1.47,1.47,0,0,0,.1.13A4,4,0,0,0,19.91,19a.28.28,0,0,1,0-.12,1.26,1.26,0,0,0-.72-1c-.13-.07-.29-.1-.43-.19a1.76,1.76,0,0,1-.56-.56A1.92,1.92,0,0,0,18.3,17a3.32,3.32,0,0,0,.7-1.59c.28-.39,1.07-.23,1.37-.18a.62.62,0,0,1,.27.09c.08.06.1.19.22.24a1,1,0,0,0,.42,0,1.24,1.24,0,0,1,.12.23,1.07,1.07,0,0,0,.12.16,3.09,3.09,0,0,0,1.07-.31l-.05-.05a1.24,1.24,0,0,0-.65-.48c-.29,0-.35-.31-.64-.37a1.07,1.07,0,0,0-.4,0,7.45,7.45,0,0,1-1.65-.19c-.55,0-.57.34-.77.65a1.76,1.76,0,0,1-.25.34c-.16.15-.33.15-.52.29l-.09-.23a1.88,1.88,0,0,0-.24-.57A2,2,0,0,0,16,14a.67.67,0,0,1-.24-.12.12.12,0,0,1,0-.2c.19-.11.52-.07.74-.17.53-.25.34-.7.13-.73a4.44,4.44,0,0,1-.84-.24c-.13-.08-.35-.49-.57-.58s-.15-.45-.36-.53a.72.72,0,0,0-.39.1c0-.08-.06-.51-.3-.65s-.25,0-.24.16.26.22.31.63l-.13.08a.79.79,0,0,0-.28-.53c-.18-.11-.25,0-.24.16s.23.2.3.54l-.15.14c-.36-.1-.45-.34-.54-.36s-.27,0-.18.22.35.29.51.34l-.09.12c-.42-.09-.52-.36-.61-.38s-.27,0-.18.22.59.37.63.37a.43.43,0,0,0-.09.29c-.33,0-.9.14-.79.52.11.08.49-.23.84-.06.23.36.6.37.68.44s.15.29.21.46a4.16,4.16,0,0,0,.5.83c.2.3.41.62.62.88a.52.52,0,0,1,0,.26,7.08,7.08,0,0,1-1.24,1.09c-.29.28-3.07,2.39-3.42,3.31a2.15,2.15,0,0,0-.11.75c-.17.09-.54.24-.65.07s.2-.52.11-.81c-.05-.11-.21-.19-.31-.11a.93.93,0,0,0,.1,1.57c.48.2.55-.32.93-.11.08.05,1,.84.82,1.46a1.16,1.16,0,0,1-.06.15c-.2.24-.52.43-.74.65-.46.29.44,2.12.36,3.06-.05.35.3.31.51.87a.66.66,0,0,0-.54.22.44.44,0,0,0-.09.28.46.46,0,0,0,.46.46.47.47,0,0,0,.46-.46s0,0,0-.06a1,1,0,0,1,.37.08l.4.21a4.07,4.07,0,0,1-3.73.5s-1-.33-.75-1.26a.51.51,0,0,1,.19-.25.49.49,0,0,0,.21.31.51.51,0,0,0,.3.1.53.53,0,0,0,.53-.53.51.51,0,0,0-.15-.36l-.07-.06h0a.84.84,0,0,0-.75-.08,1,1,0,0,0-.65,1.38s-.68-.15-.94.16a.38.38,0,0,0-.08.26h0a.79.79,0,0,0,.07.22.4.4,0,0,0,.33.17.45.45,0,0,0,.31-.14h0s.11-.08.24.05c1.53,1.6,4,.94,5.42-.14A8.66,8.66,0,0,1,14.74,28c.33.15.69.26,1,.38a3.32,3.32,0,0,0,.63,2,.75.75,0,0,1-1,.33.54.54,0,0,1-.07-.83s.28-.24.4.05a.28.28,0,0,0-.26.27.27.27,0,0,0,.27.27.27.27,0,0,0,.27-.25.68.68,0,0,0-.23-.59.67.67,0,0,0-.6-.16c-.59.09-.92,1.31.23,1.81,0,0,.91.41,1.37-.26,0,0,0-.1.17.07,1,.92,3.1.66,3.94,0,0,0,.22-.13.45-.24a.68.68,0,0,0,.67.65.67.67,0,0,0,.11-1.33,1.44,1.44,0,0,0-1.05.25,5.17,5.17,0,0,1-.62.35,3.68,3.68,0,0,0,.45-1.31c.93.1,1.89.17,2.88.19a2.58,2.58,0,0,1-.17.91s-.34.14-.35.39c0,0,0,.18.27.43a1.59,1.59,0,0,1,.29.44s0,.28.39.28h.15c.37,0,.39-.28.39-.28A1.59,1.59,0,0,1,25,31.4c.31-.25.27-.43.27-.43,0-.25-.36-.39-.36-.39a2.81,2.81,0,0,1-.16-.91c1,0,2-.09,2.88-.19a3.68,3.68,0,0,0,.45,1.31,5.11,5.11,0,0,1-.61-.35,1.49,1.49,0,0,0-1.07-.25.67.67,0,1,0,.78.68,4.64,4.64,0,0,1,.45.24c.85.64,3,.9,3.95,0,.17-.17.16-.07.16-.07.47.67,1.38.26,1.38.26,1.14-.5.81-1.72.23-1.81a.69.69,0,0,0-.61.16.65.65,0,0,0-.21.59.26.26,0,0,0,.26.25.27.27,0,0,0,.27-.27.27.27,0,0,0-.26-.27c.12-.29.4-.05.4-.05a.54.54,0,0,1-.07.83.77.77,0,0,1-1.06-.33,3.34,3.34,0,0,0,.64-2c.35-.12.7-.23,1-.37a8.5,8.5,0,0,1,1.62,1.24c1.39,1.08,3.89,1.74,5.43.14.12-.13.2-.08.23-.05h0a.45.45,0,0,0,.31.14.4.4,0,0,0,.32-.17.59.59,0,0,0,.08-.22h0a.44.44,0,0,0-.08-.26M13,28.31s-.07.06-.16,0c-.8-1,.43-2.12.82-1.43,0,0-.46,0-.41.35,0,0,0,.33.42.31,0,0,.59-.06.45-.76a.65.65,0,0,0-.43-.42,1.27,1.27,0,0,0-1.46.61,2,2,0,0,0-.1.53.84.84,0,0,0-.39-.19,4.94,4.94,0,0,1-.31-2.66,2.74,2.74,0,0,0,2.11-2,.83.83,0,0,1,.51.62c0,.21-.07.43,0,.6a3.78,3.78,0,0,0,.84.65,14.47,14.47,0,0,0,1.37,1c.16,0,.26-.09.4-.06a.27.27,0,0,1,.13.07,1.14,1.14,0,0,0,.2.17,10.84,10.84,0,0,0-1.21.94A9.85,9.85,0,0,1,13,28.31m3.83,1.1a2.15,2.15,0,0,1-.18.52,3.35,3.35,0,0,1-.36-1.4l.77.25a4.61,4.61,0,0,0-.23.63m3.05,1.46a2.66,2.66,0,0,1-2.74-.52,5.79,5.79,0,0,1,.38-1.47,23,23,0,0,0,2.82.53c-.06.62-.2,1.42-.46,1.46M18.27,27.7a1.87,1.87,0,0,1,1.26-.51.91.91,0,0,1,.86.9c-.79-.12-1.51-.24-2.12-.39m1.63-1a3.6,3.6,0,0,0-2,.93c-.49-.12-.93-.24-1.28-.35a2,2,0,0,1,.25-.41,3.38,3.38,0,0,1,3.85-.73c.05,0-.1.41-.78.56M21,28.17c.1-1,.18-1.81.53-1.81a.63.63,0,0,1,.44.25c.31.43,1.14.95,1.53,1.73-.9,0-1.74-.08-2.5-.17m3.91.17c.38-.78,1.22-1.3,1.53-1.73a.63.63,0,0,1,.44-.25c.35,0,.43.83.53,1.81-.76.09-1.6.14-2.5.17m2.85-2.23a3.38,3.38,0,0,1,3.85.73,3,3,0,0,1,.25.41c-.35.11-.79.23-1.27.35a3.64,3.64,0,0,0-2.05-.93c-.68-.15-.84-.55-.78-.56m1.15,1.08a1.82,1.82,0,0,1,1.26.52c-.61.14-1.33.27-2.12.38a.91.91,0,0,1,.86-.9m-.35,3.68c-.26,0-.4-.84-.46-1.46A23,23,0,0,0,31,28.88a6.46,6.46,0,0,1,.38,1.47,2.66,2.66,0,0,1-2.74.52m3.22-.94a2.54,2.54,0,0,1-.17-.52,4.61,4.61,0,0,0-.23-.63l.77-.25a3.44,3.44,0,0,1-.37,1.4"/><path class="cls-1" d="M57.19,13.09l-.13-5.22h0c-.11.66-.22,1.13-.3,1.49l-.88,3.73H54.07l-.84-3.73c-.08-.36-.19-.83-.31-1.49h0l-.08,5.22H51.7l.24-6.19H54S54.68,10,55,12h0c.41-2,1.22-5.12,1.22-5.12h2l.24,6.19Z"/><path class="cls-1" d="M60,13.09V9.46l-.53-.11V8.6h1.72v4.49Zm0-6.32h1.21V7.86H59.91Z"/><path class="cls-1" d="M65,13.09V10.42c0-.68-.26-1-.8-1a1.42,1.42,0,0,0-.79.28v3.39h-1.2V8.6H63l.18.51a1.87,1.87,0,0,1,1.42-.6c1.14,0,1.59.67,1.59,1.8v2.78Z"/><path class="cls-1" d="M67.57,13.09V9.46l-.52-.11V8.6h1.72v4.49Zm0-6.32h1.21V7.86H67.54Z"/><path class="cls-1" d="M70.89,9.78c0,.7,1.94.49,1.94,2,0,.82-.6,1.45-1.77,1.45a2.9,2.9,0,0,1-1.34-.33L70,12a2.15,2.15,0,0,0,1.06.31c.39,0,.66-.22.66-.5,0-.8-1.92-.54-1.92-2.07,0-.66.51-1.25,1.72-1.25a3.55,3.55,0,0,1,1.26.22l-.16.87a2.68,2.68,0,0,0-1.09-.23c-.41,0-.61.15-.61.41"/><path class="cls-1" d="M75.44,13.18c-.8,0-1.32-.38-1.32-1.5V9.45h-.67V8.6h.67V7.82l1.18-.38V8.6h1.2v.85H75.3v2.2c0,.31.15.51.47.51a1.63,1.63,0,0,0,.69-.16l.18.88a2.61,2.61,0,0,1-1.2.3"/><path class="cls-1" d="M78.21,11.16a1,1,0,0,0,1.16,1.11,3,3,0,0,0,1.31-.37l.23.84a3.68,3.68,0,0,1-1.69.44A2.09,2.09,0,0,1,77,10.83c0-1.38.67-2.32,2.11-2.32S81,9.51,81,10.64v.52Zm.84-1.77c-.59,0-.84.54-.84,1.07h1.64c0-.58-.17-1.07-.8-1.07"/><path class="cls-1" d="M84.46,9.6a1.89,1.89,0,0,0-.56-.08,1.28,1.28,0,0,0-.81.31v3.26H81.9V8.6h.84l.12.6h0A1.2,1.2,0,0,1,84,8.52a1.93,1.93,0,0,1,.52.06Z"/><path class="cls-1" d="M85.55,13.09V9.46L85,9.35V8.6h1.71v4.49Zm0-6.32h1.21V7.86H85.51Z"/><path class="cls-1" d="M91.86,10.83c0,1.53-.77,2.35-2.11,2.35s-2.1-.81-2.1-2.35a2.11,2.11,0,1,1,4.21,0m-1.23,0c0-1.08-.32-1.45-.88-1.45s-.87.38-.87,1.45.29,1.47.87,1.47.88-.39.88-1.47"/><path class="cls-1" d="M97.68,9a2.61,2.61,0,0,1-.11-.83V6.77h1.19v6.32h-1l-.14-.5a1.45,1.45,0,0,1-1.19.59c-1,0-1.83-.73-1.83-2.34s.84-2.33,1.93-2.33A1.46,1.46,0,0,1,97.68,9m-.11.67a1.64,1.64,0,0,0-.82-.21c-.57,0-.93.38-.93,1.42s.34,1.48.91,1.48a1.18,1.18,0,0,0,.84-.39Z"/><path class="cls-1" d="M100.86,11.16A1,1,0,0,0,102,12.27a3,3,0,0,0,1.32-.37l.23.84a3.72,3.72,0,0,1-1.7.44,2.09,2.09,0,0,1-2.21-2.35c0-1.38.67-2.32,2.11-2.32s1.89,1,1.89,2.13v.52Zm.85-1.77c-.6,0-.85.54-.85,1.07h1.64c0-.58-.17-1.07-.79-1.07"/><path class="cls-1" d="M51.76,21.23V16.1H53v5.07c0,.37.23.43.72.43v.84a3.48,3.48,0,0,1-.66.08c-.92,0-1.25-.49-1.25-1.29"/><path class="cls-1" d="M57.21,22.42l-.16-.53a1.62,1.62,0,0,1-1.31.63,1.39,1.39,0,0,1-1.5-1.44c0-.84.61-1.33,1.69-1.33h1v-.23c0-.58-.34-.76-.79-.76a3.36,3.36,0,0,0-1.35.3l-.3-.85a4.57,4.57,0,0,1,1.77-.37c1.27,0,1.82.59,1.82,1.74v2.84Zm-.33-2h-.75c-.49,0-.72.24-.72.58a.6.6,0,0,0,.67.66,1.38,1.38,0,0,0,.8-.3Z"/><path class="cls-1" d="M60.11,19.12c0,.69,1.94.48,1.94,1.95,0,.81-.6,1.45-1.77,1.45a2.87,2.87,0,0,1-1.34-.33l.25-.84a2,2,0,0,0,1.06.31c.39,0,.66-.22.66-.49,0-.81-1.92-.54-1.92-2.07,0-.66.51-1.26,1.72-1.26a3.79,3.79,0,0,1,1.26.22l-.17.87a2.77,2.77,0,0,0-1.08-.22c-.41,0-.61.15-.61.41"/><path class="cls-1" d="M67.55,22.52c-1.74,0-2.68-1.16-2.68-3.22s.93-3.15,2.68-3.15a3.84,3.84,0,0,1,2.1.52l-.45,1a2.57,2.57,0,0,0-1.52-.43c-1,0-1.54.73-1.54,2.08s.51,2.16,1.52,2.16a2.88,2.88,0,0,0,1.63-.56l.38,1a3.65,3.65,0,0,1-2.12.66"/><path class="cls-1" d="M73.48,22.42l-.18-.55a1.76,1.76,0,0,1-1.4.65c-1.12,0-1.63-.63-1.63-1.86V17.94h1.19v2.72c0,.69.25.94.79.94a1.4,1.4,0,0,0,.8-.27V17.94h1.22v4.48Z"/><path class="cls-1" d="M75.28,21.23V16.1h1.18v5.07c0,.37.23.43.72.43v.84a3.32,3.32,0,0,1-.65.08c-.92,0-1.25-.49-1.25-1.29"/><path class="cls-1" d="M79.62,22.52c-.8,0-1.32-.38-1.32-1.51V18.79h-.67v-.85h.67v-.78l1.18-.39v1.17h1.2v.85h-1.2V21a.45.45,0,0,0,.48.51,1.53,1.53,0,0,0,.69-.17l.18.88a2.53,2.53,0,0,1-1.21.31"/><path class="cls-1" d="M84.73,22.42l-.18-.55a1.76,1.76,0,0,1-1.4.65c-1.12,0-1.63-.63-1.63-1.86V17.94h1.19v2.72c0,.69.25.94.79.94a1.4,1.4,0,0,0,.8-.27V17.94h1.22v4.48Z"/><path class="cls-1" d="M89.06,18.93a2.17,2.17,0,0,0-.55-.07,1.33,1.33,0,0,0-.81.3v3.26H86.51V17.94h.83l.13.6h0a1.21,1.21,0,0,1,1.07-.69,1.84,1.84,0,0,1,.52.07Z"/><path class="cls-1" d="M92.46,22.42l-.16-.53a1.62,1.62,0,0,1-1.31.63,1.39,1.39,0,0,1-1.5-1.44c0-.84.61-1.33,1.69-1.33h.94v-.23c0-.58-.33-.76-.78-.76a3.36,3.36,0,0,0-1.35.3l-.3-.85a4.57,4.57,0,0,1,1.77-.37c1.27,0,1.82.59,1.82,1.74v2.84Zm-.34-2h-.74c-.49,0-.72.24-.72.58a.6.6,0,0,0,.67.66,1.35,1.35,0,0,0,.79-.3Z"/><path class="cls-1" d="M95.36,19.12c0,.69,1.94.48,1.94,1.95,0,.81-.6,1.45-1.77,1.45a2.87,2.87,0,0,1-1.34-.33l.24-.84a2.06,2.06,0,0,0,1.07.31c.39,0,.65-.22.65-.49,0-.81-1.91-.54-1.91-2.07,0-.66.5-1.26,1.72-1.26a3.79,3.79,0,0,1,1.26.22l-.17.87A2.77,2.77,0,0,0,96,18.71c-.41,0-.61.15-.61.41"/><path class="cls-1" d="M98.13,21.13h1.21V22.5c0,.77-.44,1.09-1.21,1.17v-.62c.17,0,.29-.2.29-.63l-.29-.13Z"/><path class="cls-1" d="M51.76,30.57V25.44H53v5.07c0,.37.23.43.72.43v.84a4,4,0,0,1-.66.07c-.92,0-1.25-.48-1.25-1.28"/><path class="cls-1" d="M57.21,31.76l-.16-.53a1.62,1.62,0,0,1-1.31.62,1.39,1.39,0,0,1-1.5-1.44c0-.83.61-1.32,1.69-1.32h1v-.23c0-.58-.34-.76-.79-.76a3.2,3.2,0,0,0-1.35.3l-.3-.85a4.39,4.39,0,0,1,1.77-.37c1.27,0,1.82.59,1.82,1.73v2.85Zm-.33-2h-.75c-.49,0-.72.24-.72.58a.6.6,0,0,0,.67.66,1.38,1.38,0,0,0,.8-.3Z"/><path class="cls-1" d="M60.11,28.45c0,.7,1.94.49,1.94,2,0,.81-.6,1.44-1.77,1.44a2.75,2.75,0,0,1-1.34-.33l.25-.83a2,2,0,0,0,1.06.31c.39,0,.66-.22.66-.49,0-.81-1.92-.54-1.92-2.07,0-.66.51-1.26,1.72-1.26A3.55,3.55,0,0,1,62,27.4l-.17.87A2.6,2.6,0,0,0,60.72,28c-.41,0-.61.16-.61.41"/><path class="cls-1" d="M65.76,31.76H64.59l1.68-6.18h2l1.62,6.18H68.54l-.32-1.39H66.09ZM67,26.63l-.68,2.77H68l-.64-2.77Z"/><path class="cls-1" d="M73.09,28.27a1.91,1.91,0,0,0-.56-.07,1.29,1.29,0,0,0-.81.3v3.26H70.53V27.27h.84l.13.61h0a1.21,1.21,0,0,1,1.07-.69,2.57,2.57,0,0,1,.53.06Z"/><path class="cls-1" d="M75.47,31.85c-.8,0-1.32-.37-1.32-1.5V28.12h-.67v-.85h.67v-.78l1.18-.38v1.16h1.2v.85h-1.2v2.2a.46.46,0,0,0,.48.52,1.67,1.67,0,0,0,.69-.17l.18.88a2.53,2.53,0,0,1-1.21.3"/><path class="cls-1" d="M78.25,29.84A1,1,0,0,0,79.4,31a3,3,0,0,0,1.32-.38l.23.84a3.72,3.72,0,0,1-1.7.44,2.08,2.08,0,0,1-2.2-2.34c0-1.39.66-2.33,2.1-2.33s1.89,1,1.89,2.14v.52Zm.84-1.78c-.6,0-.84.54-.84,1.07h1.64c0-.58-.18-1.07-.8-1.07"/><path class="cls-1" d="M83,28.45c0,.7,2,.49,2,2,0,.81-.61,1.44-1.77,1.44a2.79,2.79,0,0,1-1.35-.33l.25-.83a2,2,0,0,0,1.06.31c.39,0,.66-.22.66-.49,0-.81-1.91-.54-1.91-2.07,0-.66.5-1.26,1.71-1.26a3.55,3.55,0,0,1,1.26.22l-.16.87A2.64,2.64,0,0,0,83.6,28c-.41,0-.62.16-.62.41"/><path class="cls-1" d="M89.6,31.66l-.84.15-1.33-4.54h1.34l1,3.77h0l1-3.77H91.9l-1.39,4.6c-.38,1.29-1,1.77-2,1.77a2.27,2.27,0,0,1-1.26-.45l.37-.81h.11a1.64,1.64,0,0,0,.84.32c.47,0,.78-.33,1-.91Z"/><path class="cls-1" d="M95.58,29.84A1,1,0,0,0,96.73,31a3,3,0,0,0,1.32-.38l.23.84a3.68,3.68,0,0,1-1.69.44,2.08,2.08,0,0,1-2.21-2.34c0-1.39.67-2.33,2.11-2.33s1.88,1,1.88,2.14v.52Zm.84-1.78c-.59,0-.84.54-.84,1.07h1.64c0-.58-.18-1.07-.8-1.07"/><path class="cls-1" d="M99.29,30.57V25.44h1.18v5.07c0,.37.23.43.72.43v.84a3.76,3.76,0,0,1-.65.07c-.92,0-1.25-.48-1.25-1.28"/><path class="cls-1" d="M53.66,39H53V41.1h-1.2V34.91h1.88c1.27,0,2.36.61,2.36,1.94A2.13,2.13,0,0,1,53.66,39m0-3H53V38h.65a1,1,0,0,0,1.11-1.11c0-.63-.42-1-1.11-1"/><path class="cls-1" d="M59.27,41.1l-.17-.53a1.62,1.62,0,0,1-1.31.62,1.39,1.39,0,0,1-1.5-1.44c0-.83.61-1.33,1.69-1.33h1v-.23c0-.57-.33-.76-.79-.76a3.2,3.2,0,0,0-1.35.31l-.3-.86a4.58,4.58,0,0,1,1.77-.36c1.27,0,1.82.58,1.82,1.73V41.1Zm-.34-2h-.74c-.5,0-.73.24-.73.57a.59.59,0,0,0,.67.66,1.32,1.32,0,0,0,.8-.3Z"/><path class="cls-1" d="M62.79,41.19c-.8,0-1.33-.38-1.33-1.5V37.46H60.8v-.85h.66v-.78l1.19-.38v1.16h1.2v.85h-1.2v2.2c0,.31.15.51.47.51a1.63,1.63,0,0,0,.69-.16l.18.88a2.61,2.61,0,0,1-1.2.3"/><path class="cls-1" d="M67.31,37.61a1.89,1.89,0,0,0-.56-.08,1.25,1.25,0,0,0-.8.31V41.1h-1.2V36.61h.84l.13.6h0a1.2,1.2,0,0,1,1.07-.68,2,2,0,0,1,.53.06Z"/><path class="cls-1" d="M68.4,41.1V37.47l-.52-.11v-.75h1.71V41.1Zm0-6.32h1.21v1.09H68.36Z"/><path class="cls-1" d="M74.65,38.32V41.1H73.44V38.43c0-.68-.25-1-.81-1a1.35,1.35,0,0,0-.76.28V41.1h-1.2V36.61h.81l.2.52A1.7,1.7,0,0,1,73,36.52a1.44,1.44,0,0,1,1.4.63,1.76,1.76,0,0,1,1.36-.63c1.28,0,1.65.67,1.65,1.8V41.1H76.21V38.43c0-.68-.29-1-.85-1a1.37,1.37,0,0,0-.76.28,2.9,2.9,0,0,1,.05.61"/><path class="cls-1" d="M82.43,38.84c0,1.53-.78,2.35-2.11,2.35s-2.11-.81-2.11-2.35a2.12,2.12,0,1,1,4.22,0m-1.23,0c0-1.08-.32-1.45-.88-1.45s-.87.38-.87,1.45.28,1.47.87,1.47.88-.39.88-1.47"/><path class="cls-1" d="M86.11,41.1V38.43c0-.68-.26-1-.81-1a1.44,1.44,0,0,0-.79.28V41.1h-1.2V36.61h.83l.18.51a1.87,1.87,0,0,1,1.42-.6c1.14,0,1.58.67,1.58,1.8V41.1Z"/><path class="cls-1" d="M88.67,41.1V37.47l-.52-.11v-.75h1.71V41.1Zm0-6.32h1.21v1.09H88.63Z"/><path class="cls-1" d="M95,38.84c0,1.53-.77,2.35-2.1,2.35s-2.11-.81-2.11-2.35a2.11,2.11,0,1,1,4.21,0m-1.22,0c0-1.08-.32-1.45-.88-1.45s-.87.38-.87,1.45.28,1.47.87,1.47.88-.39.88-1.47"/></g></g></svg>