<svg xmlns="http://www.w3.org/2000/svg" viewBox="0 0 131 63.42"><defs><style>.cls-1{fill:#504d4d;}</style></defs><g id="Capa_2" data-name="Capa 2"><g id="Capa_1-2" data-name="Capa 1"><path class="cls-1" d="M66.45,13.73H62.8l1.83-3.86Zm-1.3-7.9a.36.36,0,0,0-.34-.22h-.35a.38.38,0,0,0-.34.22L57.45,20a.36.36,0,0,0,0,.36.38.38,0,0,0,.32.18h1.57a.38.38,0,0,0,.34-.22l2.1-4.43h5.61l2.13,4.43a.37.37,0,0,0,.33.22H71.4a.38.38,0,0,0,.32-.18.36.36,0,0,0,0-.36Z"/><path class="cls-1" d="M78.9,9.66a.39.39,0,0,0-.18-.24,2.7,2.7,0,0,0-3,.11,4,4,0,0,0-.72.6V9.67a.37.37,0,0,0-.37-.38H73.25a.38.38,0,0,0-.37.38V20.12a.38.38,0,0,0,.37.38h1.38a.37.37,0,0,0,.37-.38V16.58a16,16,0,0,1,.24-3.51,3.17,3.17,0,0,1,.84-1.53,1.57,1.57,0,0,1,1-.46,1.61,1.61,0,0,1,.56.15.37.37,0,0,0,.47-.15l.7-1.13a.37.37,0,0,0,0-.29"/><path class="cls-1" d="M84.85,11a4.08,4.08,0,0,1,3.48,1.69.37.37,0,0,0,.49.09l1.07-.66a.38.38,0,0,0,.12-.52,4.91,4.91,0,0,0-1.23-1.4A6,6,0,0,0,87,9.36,6.58,6.58,0,0,0,84.91,9a6.47,6.47,0,0,0-3.17.78A5.86,5.86,0,0,0,79.49,12a6,6,0,0,0-.81,3,5.5,5.5,0,0,0,1.75,4.1,6,6,0,0,0,4.37,1.68,6.76,6.76,0,0,0,3-.66A5.43,5.43,0,0,0,90,18.22a.39.39,0,0,0,0-.28.4.4,0,0,0-.16-.24L88.83,17a.37.37,0,0,0-.5.08,4.44,4.44,0,0,1-5.55,1.18,3.6,3.6,0,0,1-1.45-1.42,3.8,3.8,0,0,1-.53-2,3.63,3.63,0,0,1,1.14-2.72A4,4,0,0,1,84.85,11"/><path class="cls-1" d="M99.83,9.68a4.59,4.59,0,0,0-4.59-.08,5.41,5.41,0,0,0-1.24.94V5.63a.38.38,0,0,0-.38-.38H92.28a.38.38,0,0,0-.38.38V20.12a.38.38,0,0,0,.38.38h1.34a.38.38,0,0,0,.38-.38V16.28a13.66,13.66,0,0,1,.18-2.75,3.39,3.39,0,0,1,1.15-1.8A2.94,2.94,0,0,1,97.27,11a2.34,2.34,0,0,1,1.49.44,2.43,2.43,0,0,1,.78,1.36,12.18,12.18,0,0,1,.13,2.32v5a.38.38,0,0,0,.38.38h1.35a.38.38,0,0,0,.37-.38V14.74a8.8,8.8,0,0,0-.46-3.3,4,4,0,0,0-1.48-1.76"/><path class="cls-1" d="M105.42,9.29h-1.35a.38.38,0,0,0-.37.38V20.12a.38.38,0,0,0,.37.38h1.35a.38.38,0,0,0,.38-.38V9.67a.38.38,0,0,0-.38-.38"/><path class="cls-1" d="M103.7,5.42a1.45,1.45,0,0,0-.43,1.06A1.49,1.49,0,0,0,104.74,8a1.49,1.49,0,0,0,1.06-2.54,1.49,1.49,0,0,0-2.1,0"/><path class="cls-1" d="M117.07,9.29h-1.44a.39.39,0,0,0-.34.22l-3.12,6.87L109,9.51a.36.36,0,0,0-.34-.22h-1.43a.4.4,0,0,0-.32.17.39.39,0,0,0,0,.36l4.82,10.46a.38.38,0,0,0,.34.22h.25a.38.38,0,0,0,.34-.22l4.79-10.46a.39.39,0,0,0,0-.36.4.4,0,0,0-.32-.17"/><path class="cls-1" d="M124.06,11.09a3.52,3.52,0,0,1,2.62,1.13,3.73,3.73,0,0,1,1.1,2.73,3.91,3.91,0,0,1-.5,1.93,3.56,3.56,0,0,1-1.35,1.37,3.86,3.86,0,0,1-3.73,0,3.63,3.63,0,0,1-1.35-1.37,3.91,3.91,0,0,1-.5-1.93,3.73,3.73,0,0,1,1.1-2.73,3.49,3.49,0,0,1,2.61-1.13m4.29-.2a5.83,5.83,0,0,0-8.57,0,6,6,0,0,0,.08,8.11,5.9,5.9,0,0,0,8.41,0,6,6,0,0,0,.08-8.12"/><path class="cls-1" d="M68.32,25.15h-1.2a.29.29,0,0,0-.28.28V34l-7.56-8.72a.32.32,0,0,0-.22-.1H58.8a.28.28,0,0,0-.28.28V37.55a.28.28,0,0,0,.28.28h1.25a.28.28,0,0,0,.28-.28V29.13l7.5,8.6a.3.3,0,0,0,.22.1h.27a.29.29,0,0,0,.28-.28V25.43a.29.29,0,0,0-.28-.28"/><path class="cls-1" d="M78.66,33.11a3.43,3.43,0,0,1-.42,1.7A3,3,0,0,1,77,36a3.23,3.23,0,0,1-4.47-1.24,3.32,3.32,0,0,1,0-3.34,3.1,3.1,0,0,1,1.19-1.22,3.21,3.21,0,0,1,1.63-.44,3.11,3.11,0,0,1,2.32,1,3.25,3.25,0,0,1,1,2.4M80,28.31H78.87a.28.28,0,0,0-.29.28v.86a4.39,4.39,0,0,0-3.28-1.37,4.73,4.73,0,0,0-3.47,1.46A4.83,4.83,0,0,0,70.39,33a4.92,4.92,0,0,0,1.43,3.56,4.67,4.67,0,0,0,3.45,1.46,4.79,4.79,0,0,0,2.1-.47,5.25,5.25,0,0,0,1.21-.86v.82a.29.29,0,0,0,.29.28H80a.29.29,0,0,0,.29-.28v-9a.28.28,0,0,0-.29-.28"/><path class="cls-1" d="M89.69,37.5a4.69,4.69,0,0,0,1.84-1.6.26.26,0,0,0,0-.21.32.32,0,0,0-.12-.18l-.91-.6a.28.28,0,0,0-.38.06,3.66,3.66,0,0,1-3,1.46,3.61,3.61,0,0,1-1.8-.44,3.17,3.17,0,0,1-1.26-1.23,3.32,3.32,0,0,1-.46-1.7,3.13,3.13,0,0,1,1-2.36,3.44,3.44,0,0,1,2.53-1,3.49,3.49,0,0,1,3,1.46.3.3,0,0,0,.38.07l.91-.57a.28.28,0,0,0,.1-.38,4.11,4.11,0,0,0-1.06-1.2A4.89,4.89,0,0,0,89,28.36a5.8,5.8,0,0,0-1.81-.28,5.52,5.52,0,0,0-2.69.66,4.9,4.9,0,0,0-1.91,1.84,5,5,0,0,0-.7,2.56,4.68,4.68,0,0,0,1.49,3.49,5.18,5.18,0,0,0,3.72,1.43,5.86,5.86,0,0,0,2.59-.56"/><rect class="cls-1" x="93.05" y="28.31" width="1.72" height="9.52" rx="0.28"/><path class="cls-1" d="M93.91,27.08a1.23,1.23,0,0,0,.87-2.1A1.22,1.22,0,0,0,93,25a1.19,1.19,0,0,0-.36.87,1.25,1.25,0,0,0,1.23,1.23"/><path class="cls-1" d="M101.12,29.77a3,3,0,0,1,2.27,1,3.25,3.25,0,0,1,1,2.37,3.36,3.36,0,0,1-.44,1.67A3.11,3.11,0,0,1,102.74,36a3.33,3.33,0,0,1-3.24,0,3,3,0,0,1-1.16-1.19,3.36,3.36,0,0,1-.44-1.67,3.24,3.24,0,0,1,.95-2.37,3,3,0,0,1,2.27-1m3.57,6.8a5.08,5.08,0,0,0,.08-6.9,5,5,0,0,0-7.29,0,5.1,5.1,0,0,0,.07,6.9,5,5,0,0,0,7.14,0"/><path class="cls-1" d="M116,37.55V32.94a7.36,7.36,0,0,0-.4-2.81,3.33,3.33,0,0,0-1.25-1.5,3.9,3.9,0,0,0-3.9-.06,4.66,4.66,0,0,0-1.12.86v-.84a.27.27,0,0,0-.28-.28h-1.15a.27.27,0,0,0-.28.28v9a.28.28,0,0,0,.28.28h1.15a.28.28,0,0,0,.28-.28V34.26a11.81,11.81,0,0,1,.16-2.36,3,3,0,0,1,1-1.57,2.55,2.55,0,0,1,1.69-.63,2.06,2.06,0,0,1,1.31.39,2,2,0,0,1,.67,1.18,10.49,10.49,0,0,1,.12,2v4.28a.28.28,0,0,0,.28.28h1.15a.29.29,0,0,0,.29-.28"/><path class="cls-1" d="M125.8,33.11a3.43,3.43,0,0,1-.42,1.7,3,3,0,0,1-1.2,1.18,3.23,3.23,0,0,1-4.47-1.24,3.32,3.32,0,0,1,0-3.34,3.1,3.1,0,0,1,1.19-1.22,3.21,3.21,0,0,1,1.63-.44,3.15,3.15,0,0,1,2.33,1,3.28,3.28,0,0,1,.94,2.4m1.34-4.8H126a.28.28,0,0,0-.29.28v.86a4.39,4.39,0,0,0-3.28-1.37A4.72,4.72,0,0,0,119,29.54a4.79,4.79,0,0,0-1.44,3.5A4.92,4.92,0,0,0,119,36.6a4.66,4.66,0,0,0,3.45,1.46,4.71,4.71,0,0,0,2.09-.47,5.09,5.09,0,0,0,1.22-.86v.82a.29.29,0,0,0,.29.28h1.13a.28.28,0,0,0,.28-.28v-9a.27.27,0,0,0-.28-.28"/><path class="cls-1" d="M130.72,24.85h-1.16a.28.28,0,0,0-.28.28V37.55a.29.29,0,0,0,.28.28h1.16a.28.28,0,0,0,.28-.28V25.13a.27.27,0,0,0-.28-.28"/><path class="cls-1" d="M66.2,50.54a3.43,3.43,0,0,1-.42,1.7,3.09,3.09,0,0,1-1.2,1.18,3.27,3.27,0,0,1-3.27,0,3.37,3.37,0,0,1-1.2-4.58,3.13,3.13,0,0,1,1.19-1.23,3.32,3.32,0,0,1,1.64-.43,3.09,3.09,0,0,1,2.32,1,3.28,3.28,0,0,1,.94,2.4m1.34-8.26H66.41a.28.28,0,0,0-.29.28v4.32A4.36,4.36,0,0,0,65,46a4.44,4.44,0,0,0-2.13-.51A4.77,4.77,0,0,0,59.37,47a4.86,4.86,0,0,0-1.44,3.51A4.92,4.92,0,0,0,59.36,54a4.67,4.67,0,0,0,3.45,1.46,4.79,4.79,0,0,0,2.1-.47,5,5,0,0,0,1.21-.87V55a.29.29,0,0,0,.29.28h1.13a.28.28,0,0,0,.28-.28V42.56a.27.27,0,0,0-.28-.28"/><path class="cls-1" d="M71.41,49.31A3.23,3.23,0,0,1,72.25,48a3,3,0,0,1,2.08-.78,3.41,3.41,0,0,1,1.41.31,2.93,2.93,0,0,1,1.06.81,3.06,3.06,0,0,1,.52,1Zm2.9-3.81a4.57,4.57,0,0,0-3.77,1.81,5.17,5.17,0,0,0,.2,6.64,4.57,4.57,0,0,0,3.64,1.54,5.33,5.33,0,0,0,1.88-.32,4.73,4.73,0,0,0,1.49-.93,5.52,5.52,0,0,0,1.17-1.6.27.27,0,0,0-.12-.37l-1-.52a.29.29,0,0,0-.37.11,5.09,5.09,0,0,1-.93,1.2,3.22,3.22,0,0,1-1,.58,3.53,3.53,0,0,1-1.24.22A2.91,2.91,0,0,1,72.1,53a3.26,3.26,0,0,1-.9-2.08H79a.32.32,0,0,0,.21-.08.32.32,0,0,0,.08-.2,5.16,5.16,0,0,0-1-3.24,4.74,4.74,0,0,0-3.89-1.85"/><path class="cls-1" d="M96.47,51.92a.28.28,0,0,0-.38,0,5.08,5.08,0,0,1-4,1.9,5,5,0,0,1-3.63-1.41A4.62,4.62,0,0,1,87,49a5,5,0,0,1,.64-2.5,4.81,4.81,0,0,1,1.81-1.77,5.36,5.36,0,0,1,4.86-.15A5,5,0,0,1,96.08,46a.28.28,0,0,0,.39,0l1-.74a.27.27,0,0,0,0-.38,6.14,6.14,0,0,0-2.34-2,7.11,7.11,0,0,0-3.19-.7,6.71,6.71,0,0,0-4.87,1.89,6.31,6.31,0,0,0-2,4.68,6.68,6.68,0,0,0,1.61,4.5A6.58,6.58,0,0,0,92,55.57a7.44,7.44,0,0,0,3.14-.66A6.49,6.49,0,0,0,97.48,53a.26.26,0,0,0,.06-.21.31.31,0,0,0-.11-.19Z"/><path class="cls-1" d="M106,46.06a3.88,3.88,0,0,0-3.9-.06,4.66,4.66,0,0,0-1.12.86v-4.3a.28.28,0,0,0-.28-.28H99.49a.28.28,0,0,0-.28.28V55a.29.29,0,0,0,.28.28h1.16a.29.29,0,0,0,.28-.28V51.69a11.25,11.25,0,0,1,.16-2.37,3,3,0,0,1,1-1.56,2.53,2.53,0,0,1,1.69-.63,2,2,0,0,1,1.3.39,2.05,2.05,0,0,1,.68,1.18,10.42,10.42,0,0,1,.12,2V55a.28.28,0,0,0,.28.28h1.15a.28.28,0,0,0,.28-.28V50.37a7.53,7.53,0,0,0-.39-2.81,3.34,3.34,0,0,0-1.25-1.5"/><path class="cls-1" d="M109.32,42.41a1.23,1.23,0,1,0,2.09.87,1.15,1.15,0,0,0-.36-.87,1.21,1.21,0,0,0-1.73,0"/><path class="cls-1" d="M110.76,45.74h-1.15a.27.27,0,0,0-.28.28v9a.28.28,0,0,0,.28.28h1.15a.29.29,0,0,0,.29-.28V46a.28.28,0,0,0-.29-.28"/><path class="cls-1" d="M114.14,42.28H113a.28.28,0,0,0-.29.28V55a.29.29,0,0,0,.29.28h1.15a.28.28,0,0,0,.28-.28V42.56a.27.27,0,0,0-.28-.28"/><path class="cls-1" d="M117.79,49.31a3.23,3.23,0,0,1,.84-1.36,3,3,0,0,1,2.08-.78,3.38,3.38,0,0,1,1.41.31,3.06,3.06,0,0,1,1.07.81,3.48,3.48,0,0,1,.52,1Zm2.91-3.81a4.58,4.58,0,0,0-3.78,1.81,5.2,5.2,0,0,0,.2,6.64,4.57,4.57,0,0,0,3.64,1.54,5.25,5.25,0,0,0,1.88-.32,4.77,4.77,0,0,0,1.5-.93,5.69,5.69,0,0,0,1.16-1.6.27.27,0,0,0-.12-.37l-1-.52a.29.29,0,0,0-.37.11,5.09,5.09,0,0,1-.93,1.2,3,3,0,0,1-1,.58,3.47,3.47,0,0,1-1.23.22,2.88,2.88,0,0,1-2.18-.91,3.27,3.27,0,0,1-.91-2.08h7.77a.27.27,0,0,0,.28-.28,5.1,5.1,0,0,0-1-3.24,4.72,4.72,0,0,0-3.88-1.85"/><path class="cls-1" d="M38.33,23.73a5.12,5.12,0,0,1,.39-2,3.78,3.78,0,0,1,1.15-1.54,5.55,5.55,0,0,1,.72-.5,30.47,30.47,0,0,1,2.39,12,29.14,29.14,0,0,1-4.65,16.2ZM36.41,50.36a4,4,0,0,1-.92-1.13,15.85,15.85,0,0,1-1.13-3.75h0l2.43,2.59h1.43a23.09,23.09,0,0,1-1.81,2.29M24.87,55.9a14.72,14.72,0,0,1-9-3.21h4V51a2.79,2.79,0,0,1-1.68-1,6.89,6.89,0,0,1-1.07-2.93h1.55V46a13.28,13.28,0,0,1-1.62-.17,21.61,21.61,0,0,1,.47-4.27c.08-.36.64-2.66,1.39-5.73h6.33l2.92,3.11c.84,4.05,1.48,7.15,1.55,7.54a6.6,6.6,0,0,1,.1,2.62,1.8,1.8,0,0,1-1.24,1.59c-.6.21-1.59.42-1.59.42v1.62h6.91a14.7,14.7,0,0,1-9,3.21M14.7,47.05a13,13,0,0,1-1.1,2.1,4.4,4.4,0,0,1-.66.75,20.8,20.8,0,0,1-2.07-2.85ZM9.28,19.41a6.3,6.3,0,0,1,.75.49,10.23,10.23,0,0,1,1.35,1.18v19a10.62,10.62,0,0,1-.16,1.69,4.3,4.3,0,0,1-.82,2.06,3.48,3.48,0,0,1-.83.84A30.23,30.23,0,0,1,6.76,31.71a30.39,30.39,0,0,1,2.52-12.3M24.87,7.52H25l-4.64,2.68v1.53a2.22,2.22,0,0,1,1.17.38A2.93,2.93,0,0,1,22.8,14a3.12,3.12,0,0,1-.14,1.8c-.08.31-.79,3.26-1.72,7.06l-5.23-5.57H10.34c3.3-5.91,8.58-9.75,14.53-9.75m11.77,13a4.11,4.11,0,0,0-1.36-1.23,4.27,4.27,0,0,0-1-.39h5a6.08,6.08,0,0,0-1,.73,3.64,3.64,0,0,0-.7,1,7.17,7.17,0,0,0-.37.93,6.92,6.92,0,0,0-.62-1.05M33.47,41.21l2.08,2.2c.12.12.43.45.68.74a2.89,2.89,0,0,1,.66,1.15A14.45,14.45,0,0,1,37,47.07L34,44l-.57-2.75m-5.95-5.42c.11.54.22,1.08.34,1.62l-1.53-1.62Zm-5.7-12,1.72-7.07,2.39,11.43Zm-1.4,5.75.42-1.71,5.71,6h-2Zm-.21.89,3.24,3.45H19.37c.27-1.1.55-2.27.84-3.45M9.53,18.77l.19-.4h0c.09,0,.43,0,.8,0a3.71,3.71,0,0,1,1.48.45,7.36,7.36,0,0,1,1.19.94c.12.1.34.32.52.51l.28.3L20,26.88l-.42,1.72-6.63-7s-1.17-1.25-1.53-1.6a5.93,5.93,0,0,0-1.18-1,4.5,4.5,0,0,0-.63-.24h0m.59,27.1-.31-.6,0,0a6.07,6.07,0,0,0,1.13-1,3.72,3.72,0,0,0,.74-1.45,6.53,6.53,0,0,0,.46,1.36,3.94,3.94,0,0,0,.94,1.17,5.64,5.64,0,0,0,.84.57H10.12Zm5.28-.67a5.28,5.28,0,0,1-.81-.5,3.81,3.81,0,0,1-1.4-2A9.5,9.5,0,0,1,12.83,40V22.58l6.5,6.91c-1.39,5.71-2.71,11.19-2.88,11.92-.25,1.1-.68,2.65-1,3.79M16,48.86a4.33,4.33,0,0,0,.9,1.93H13.49l.12-.14a13,13,0,0,0,1.16-1.81,17,17,0,0,0,.75-1.79c.2-.54.33-.95.33-.95a8.77,8.77,0,0,0,0,.95A9.21,9.21,0,0,0,16,48.86M31.4,45.48c0,.18.1.54.16.93a15.08,15.08,0,0,1,.13,1.86A4.65,4.65,0,0,1,31.42,50c-.16.38-.58,1-1.12,1.12a1.46,1.46,0,0,1-.82,0,4,4,0,0,0,.57-.64,3.94,3.94,0,0,0,.44-1.64,12.23,12.23,0,0,0-.1-1.94c0-.33-.1-.64-.15-.87l-.06-.27-1.24-6-.31-1.49-.57-2.76L26.71,29l-3-14.42c-.07-.32-.19-.79-.28-1.08a5,5,0,0,0-.82-1.6,3.41,3.41,0,0,0-.66-.55,1,1,0,0,1,.76-.21,1.55,1.55,0,0,1,1.28.69,4.49,4.49,0,0,1,.65,1.47c.11.33.21.72.27,1L28.33,30.7l1.35,6.48.57,2.76.31,1.5Zm8.17-27.89H30.92v1.17s.39,0,.69,0a7.66,7.66,0,0,1,2,.44A4.66,4.66,0,0,1,36,21a5.56,5.56,0,0,1,.92,3.19V39.79l-4.76-5C30,24.4,27,10.05,26.45,7.62c5.41.63,10.12,4.41,13.12,10M24.87,6.16C14.15,6.16,5.46,17.6,5.46,31.71s8.69,25.56,19.41,25.56S44.28,45.82,44.28,31.71,35.59,6.16,24.87,6.16"/><path class="cls-1" d="M24.87,59.88C12.78,59.88,3,47.28,3,31.71S12.78,3.54,24.87,3.54s21.9,12.61,21.9,28.17S37,59.88,24.87,59.88M24.87,0C11.13,0,0,14.2,0,31.71S11.13,63.42,24.87,63.42,49.74,49.23,49.74,31.71,38.61,0,24.87,0"/></g></g></svg>